<svg xmlns="http://www.w3.org/2000/svg" width="114" height="119" fill="none"><g clip-path="url(#a)" filter="url(#b)"><path fill="url(#c)" d="M106.772 41.258c1.336 7.718-6.86 5.662-6.86 5.662-3.43-9.665-8.918-8.764-8.918-8.764 4.297 3.138 4.622 5.807 4.622 5.807-11.446-8.115-27.008-1.587-32.93 1.478-3.321-4.688-10.037-15.183-7.654-19.943 3.142-6.24 9.532-2.67 9.532-2.67 12.926-.215 12.204-4.832 12.204-4.832-3.43 2.669-13.54 0-13.54 0 8.774 0 12.493-3.57 12.493-3.57-6.535 1.623-13.829-5.338-13.829-5.338-2.671-13.668-15.02-7.862-15.02-7.862C54.6-.108 52.541 8.08 52.541 8.08c-9.676 3.426-8.774 8.907-8.774 8.907 3.141-4.291 5.813-4.616 5.813-4.616-8.846 12.442-.325 29.753 2.203 34.261-4.622 3.21-15.454 10.279-20.328 7.826-6.246-3.137-2.672-9.52-2.672-9.52-.144-12.912-4.766-12.19-4.766-12.19 2.672 3.426 0 13.524 0 13.524 0-8.764-3.574-12.479-3.574-12.479 1.624 6.528-5.344 13.813-5.344 13.813-13.684 2.669-7.871 15.003-7.871 15.003-1.336-7.718 6.86-5.662 6.86-5.662 3.43 9.665 8.918 8.764 8.918 8.764-4.297-3.138-4.622-5.807-4.622-5.807 12.096 8.583 28.813.794 33.868-1.947 3.394 4.868 9.713 14.894 7.366 19.546-3.141 6.24-9.532 2.67-9.532 2.67-12.926.144-12.204 4.76-12.204 4.76 3.43-2.669 13.54 0 13.54 0-8.774 0-12.493 3.57-12.493 3.57 6.535-1.623 13.829 5.338 13.829 5.338 2.671 13.668 15.02 7.862 15.02 7.862-7.727 1.334-5.669-6.852-5.669-6.852 9.677-3.427 8.774-8.908 8.774-8.908-3.141 4.291-5.813 4.616-5.813 4.616 8.665-12.154.686-28.996-2.022-33.937 4.91-3.426 14.84-9.557 19.425-7.249 6.246 3.138 2.672 9.521 2.672 9.521.144 12.911 4.766 12.19 4.766 12.19-2.672-3.426 0-13.524 0-13.524 0 8.764 3.574 12.478 3.574 12.478-1.624-6.528 5.344-13.813 5.344-13.813 13.757-2.632 7.943-14.966 7.943-14.966Z"/></g><defs><linearGradient id="c" x1="56.997" x2="56.997" y1=".001" y2="102.927" gradientUnits="userSpaceOnUse"><stop stop-color="#C0B7E8"/><stop offset="1" stop-color="#8176AF"/></linearGradient><clipPath id="a"><path fill="#fff" d="M6 0h102v103H6z"/></clipPath><filter id="b" width="114" height="119" x="0" y="0" color-interpolation-filters="sRGB" filterUnits="userSpaceOnUse"><feFlood flood-opacity="0" result="BackgroundImageFix"/><feColorMatrix in="SourceAlpha" result="hardAlpha" values="0 0 0 0 0 0 0 0 0 0 0 0 0 0 0 0 0 0 127 0"/><feOffset dy="10"/><feGaussianBlur stdDeviation="3"/><feComposite in2="hardAlpha" operator="out"/><feColorMatrix values="0 0 0 0 0 0 0 0 0 0 0 0 0 0 0 0 0 0 0.25 0"/><feBlend in2="BackgroundImageFix" result="effect1_dropShadow_1_5"/><feBlend in="SourceGraphic" in2="effect1_dropShadow_1_5" result="shape"/></filter></defs></svg>